<svg xmlns="http://www.w3.org/2000/svg" xmlns:xlink="http://www.w3.org/1999/xlink">
	<symbol id="logo" viewBox="0 0 100 16.447">
		<path d="M10.01 1.35c.02-.073.037-.13.037-.186 0-.113-.054-.17-.167-.206-.245-.076-.564-.113-.936-.113-.319 0-.598.057-.86.133-.113.036-.152.093-.152.186 0 .073.02.15.056.243l.993 2.732zm4.303.15c.02-.074.036-.13.036-.187 0-.13-.073-.225-.223-.281a8.274 8.274 0 0 0-1.347-.3l-.13-.56c.84.039 1.384.095 1.945.095.505 0 1.066-.02 1.797-.095l.036.544a1.396 1.396 0 0 0-.86.634c-.411.73-3.648 8.98-4.004 10.216l-.936.394c-.504-1.384-1.404-3.518-2.134-5.278-.747 1.796-1.495 3.742-1.85 4.884l-.973.355C4.621 9.228 1.647 1.968 1.367 1.52 1.086 1.108.597.882.15.772L0 .21c.9.093 1.76.093 2.132.093.375 0 1.536-.037 2.266-.132l.13.544c-.468.073-.916.166-1.235.279-.169.056-.225.15-.225.262 0 .093.037.186.093.319l3.257 8.1 1.59-4.096C7.24 3.634 6.68 2.117 6.324 1.52c-.281-.433-.637-.6-1.122-.769L5.07.192c.73.075 2.154.112 2.975.112 1.29 0 1.872-.02 3.648-.113l.113.525a1.32 1.32 0 0 0-.843.634c-.15.282-.84 1.985-1.534 3.761l1.909 4.622zm0 0"/>
		<path d="M24.903 4.996c0-2.271-1.583-4.072-3.416-4.072-1.88 0-3.119 1.865-3.119 3.9 0 2.24 1.632 4.326 3.462 4.326 1.975 0 3.073-2.086 3.073-4.154m1.488-.563c0 1.222-.314 2.382-.956 3.259-.845 1.176-2.57 2.335-3.994 2.335a4.54 4.54 0 0 1-4.528-4.575c0-1.176.267-2.085.862-2.913C18.62 1.362 20.39 0 21.815 0c2.804 0 4.576 2.004 4.576 4.433"/>
		<path d="M35.852 4.996c0-2.271-1.581-4.072-3.414-4.072-1.88 0-3.12 1.865-3.12 3.9 0 2.24 1.63 4.326 3.463 4.326 1.975 0 3.07-2.086 3.07-4.154m1.49-.563c0 1.222-.313 2.382-.955 3.259-.848 1.176-2.57 2.335-3.997 2.335a4.539 4.539 0 0 1-4.526-4.575c0-1.176.265-2.085.863-2.913C29.57 1.362 31.34 0 32.766 0c2.804 0 4.575 2.004 4.575 4.433"/>
		<path d="M40.755 8.084c0 .343.032.688.078.862.346.155 1.051.25 1.676.25 2.193 0 3.541-1.644 3.541-4.371 0-2.632-1.784-3.98-3.87-3.98-.516 0-1.048.064-1.33.172-.078.127-.095.456-.095.706zm6.863-3.352c0 3.477-2.428 5.138-5.013 5.138-.8 0-1.365-.032-1.943-.064a14.267 14.267 0 0 0-1.145-.046c-.406 0-.845.015-1.426.078l.142-.453c.36-.032.8-.174 1.002-.314.064-.174.125-.455.125-.955V1.519c0-.218-.046-.531-.107-.656-.157-.11-.691-.221-1.02-.253l-.157-.47c.564.078 1.035.11 1.505.11.407 0 .83-.015 1.299-.047.47-.031.972-.046 1.426-.046 2.899 0 5.312 1.894 5.312 4.575"/>
		<path d="M56.359 1.74c0-.3-.047-.613-.093-.738-.236-.171-.723-.25-1.083-.282l-.125-.5c.612.03 1.269.062 1.957.062.645 0 1.145-.032 1.694-.061l.11.468c-.33.031-.752.11-.988.235-.063.203-.078.706-.078 1.002v6.268c0 .297.015.627.061.799.267.171.863.296 1.365.36l-.157.439a36.914 36.914 0 0 0-3.698 0l.126-.424c.313-.061.705-.204.816-.346.046-.171.093-.546.093-1.048V5.278h-4.717v3.056c0 .235.017.531.063.688.204.128.785.285 1.316.363l-.14.407a25.15 25.15 0 0 0-1.614-.047c-.689 0-1.488.03-2.022.061l.079-.421c.345-.064.723-.189.83-.33.05-.158.079-.422.079-.768V1.661c0-.313-.03-.612-.093-.737-.204-.11-.72-.218-1.034-.235L48.98.172c.674.049 1.534.093 2.24.093.485 0 1.065-.015 1.487-.044l.063.453c-.36.032-.784.11-1.034.25-.063.157-.095.674-.095 1.112v2.411h4.717zm0 0"/>
		<path d="M63.313 5.42h2.884l-1.473-3.98zm3.134.706H63.03l-.985 2.507a.527.527 0 0 0-.064.264c0 .096.157.174.407.236.314.095.91.171 1.316.203l-.218.502a20.583 20.583 0 0 0-1.74-.093c-.299 0-.924.015-1.676.093l.157-.47c.36-.064.674-.204.83-.532.329-.627 3.117-7.584 3.385-8.633l1.159-.171c.578 1.865 3.241 8.287 3.491 8.662.22.345.691.61 1.255.689l-.189.44a24.297 24.297 0 0 0-1.972-.095c-.314 0-1.363.047-1.958.11l.14-.47a4.58 4.58 0 0 0 .94-.157c.157-.061.25-.14.25-.25 0-.11-.046-.25-.11-.392zm0 0"/>
		<path d="M76.96 1.33a.393.393 0 0 0 .046-.171c0-.11-.047-.171-.172-.22-.22-.108-.784-.25-1.098-.312L75.58.19c.705.078 1.443.093 1.835.093.311 0 .657 0 1.36-.093l.11.421c-.265.064-.688.314-.86.613-.346.593-3.384 7.424-3.666 8.458l-.784.393c-.799-2.208-3.212-8.38-3.462-8.743-.236-.36-.61-.547-1.02-.657l-.14-.456c.893.078 1.488.078 1.802.078.313 0 1.284-.029 1.99-.107l.155.42c-.36.047-.72.11-1.034.174-.157.047-.22.093-.22.218 0 .079.032.204.095.392l2.475 6.565zm0 0"/>
		<path d="M87.111 7.143c-.127.737-.47 2.068-.691 2.71a32.173 32.173 0 0 0-2.977-.108c-.86 0-2.272.015-3.76.079l.126-.441c.345-.03.816-.172 1.034-.312.078-.203.125-.595.125-.926V1.583c0-.235-.032-.517-.093-.627-.204-.142-.628-.218-.97-.253L79.747.19c.642.046 1.8.078 2.631.078 1.206 0 2.365-.032 3.698-.189.03 1.066.047 1.958.125 2.804l-.33.017a23.945 23.945 0 0 0-.672-1.693c-.079-.157-.11-.19-.236-.204-.205-.032-.769-.046-1.176-.046-.5 0-1.19.031-1.345.093-.064.174-.064.485-.064.848V4.4c.25.017.579.017.91.017.592 0 1.173-.017 1.487-.047l.392-.909.282.047a19.5 19.5 0 0 0-.047 1.223c0 .578.015 1.08.079 1.533l-.3.032-.485-1.048c-.374-.017-.798-.017-1.269-.017-.36 0-.752 0-1.063.017v2.913c0 .297.014.596.078.784.468.061 1.095.093 1.69.093.408 0 .878-.014 1.143-.032.299-.046.44-.093.549-.235.267-.36.644-1.095.88-1.63zm0 0"/>
		<path d="M97.437 1.122c-.22-.15-.853-.299-1.262-.335l-.184-.593c.76.073 1.372.093 2.041.093.686 0 1.373-.057 1.855-.093l.113.575c-.372.017-1.059.184-1.282.297-.036.15-.073.576-.073.983l-.037 7.331c0 .686 0 1.299.054 2.154l-.872.426c-1.04-1.597-5.288-7.388-7.146-9.836v7.572c0 .353.02.743.094.963.205.15 1.281.39 1.69.429l-.186.483c-.576-.037-1.262-.037-1.874-.037-.65 0-1.412.017-2.042.054l.11-.5c.427-.056.856-.243.986-.373.073-.203.11-.536.11-1.002V2.7c0-.669-.037-1.355-.13-1.634-.24-.13-.723-.26-1.112-.297l-.13-.612c.666.037 1.169.093 1.744.093.427 0 .853-.04 1.373-.093l6.31 8.704c0-2.507-.02-4.695-.02-6.683 0-.443-.054-.909-.13-1.056"/>
		<path d="M27.447 15.79a2.768 2.768 0 0 1-.118.162 1.166 1.166 0 0 1-.238.218c-.1.076-.225.14-.375.196-.147.054-.323.08-.526.08-.248 0-.476-.043-.68-.136a1.555 1.555 0 0 1-.528-.38 1.758 1.758 0 0 1-.339-.573 2.132 2.132 0 0 1-.117-.718c0-.253.04-.488.117-.706.081-.22.194-.41.339-.574.147-.164.323-.291.529-.384a1.58 1.58 0 0 1 .679-.14c.203 0 .38.027.526.08.15.057.275.121.375.195.103.075.182.149.238.22.056.071.096.125.118.162l-.187.127-.102-.13a.843.843 0 0 0-.196-.183 1.236 1.236 0 0 0-.762-.238c-.221 0-.417.04-.591.12-.174.08-.321.194-.444.333a1.49 1.49 0 0 0-.276.5 1.94 1.94 0 0 0-.096.618c0 .22.034.426.1.617.064.191.157.358.277.5.123.145.27.257.446.338.177.081.375.12.598.12a1.2 1.2 0 0 0 .429-.07c.12-.05.225-.106.309-.168a.996.996 0 0 0 .2-.183c.052-.06.086-.103.108-.13zm0 0"/>
		<path d="M28.645 12.916h.247v1.946c0 .196.017.377.047.541.032.167.088.309.17.429.08.12.188.216.327.282.138.068.314.1.527.1.213 0 .39-.032.527-.1a.819.819 0 0 0 .328-.282c.081-.12.138-.262.17-.429a3.11 3.11 0 0 0 .046-.541v-1.946h.248v2.073c0 .203-.023.394-.064.57a1.228 1.228 0 0 1-.218.464 1.044 1.044 0 0 1-.407.311 1.54 1.54 0 0 1-.63.113c-.252 0-.463-.037-.63-.113a1.027 1.027 0 0 1-.406-.311 1.155 1.155 0 0 1-.216-.463 2.355 2.355 0 0 1-.066-.571zm0 0"/>
		<path d="M32.642 15.734c.117.142.257.257.421.345.164.091.36.135.595.135.135 0 .258-.015.37-.046a.812.812 0 0 0 .29-.138.59.59 0 0 0 .188-.227.715.715 0 0 0 .069-.317.667.667 0 0 0-.076-.325.674.674 0 0 0-.199-.226 1.06 1.06 0 0 0-.281-.147 5.15 5.15 0 0 0-.319-.103 5.95 5.95 0 0 1-.392-.118c-.132-.041-.25-.1-.353-.169a.848.848 0 0 1-.25-.27.825.825 0 0 1-.095-.42c0-.118.024-.23.07-.336a.834.834 0 0 1 .211-.28c.091-.078.204-.142.336-.188.132-.047.284-.069.453-.069a1.417 1.417 0 0 1 .68.162 1.078 1.078 0 0 1 .354.313l-.176.15a1.128 1.128 0 0 0-.12-.132.826.826 0 0 0-.174-.13 1.158 1.158 0 0 0-.573-.138.986.986 0 0 0-.365.06.69.69 0 0 0-.253.149.628.628 0 0 0-.191.448c0 .125.03.228.086.309a.69.69 0 0 0 .225.2c.093.055.196.099.314.133.115.034.23.066.348.098.12.032.24.071.362.115.12.047.228.11.321.187a.892.892 0 0 1 .233.294c.062.115.09.262.09.433a.84.84 0 0 1-.092.4.91.91 0 0 1-.25.304c-.106.08-.23.144-.375.19a1.584 1.584 0 0 1-.466.067 1.689 1.689 0 0 1-.742-.167 1.428 1.428 0 0 1-.267-.171.947.947 0 0 1-.189-.199zm0 0"/>
		<path d="M36.962 13.139h-1.338v-.223h2.925v.223h-1.338v3.225h-.25zm0 0"/>
		<path d="M40.833 16.214c.218 0 .417-.039.596-.12a1.394 1.394 0 0 0 .749-.838c.069-.191.103-.397.103-.613 0-.218-.034-.421-.103-.615a1.521 1.521 0 0 0-.291-.502 1.392 1.392 0 0 0-1.054-.458 1.389 1.389 0 0 0-1.051.458 1.521 1.521 0 0 0-.292.502 1.82 1.82 0 0 0-.103.615c0 .216.035.422.103.613.069.191.167.358.292.502a1.37 1.37 0 0 0 1.051.456m0 .233a1.656 1.656 0 0 1-1.225-.522 1.88 1.88 0 0 1-.485-1.282 1.884 1.884 0 0 1 .485-1.284c.152-.164.333-.291.541-.387.209-.09.437-.137.684-.137.25 0 .478.047.686.137.209.096.387.223.54.387a1.8 1.8 0 0 1 .357.576c.086.22.13.456.13.708 0 .255-.044.493-.13.711-.086.218-.206.41-.358.571a1.66 1.66 0 0 1-1.225.522"/>
		<path d="M43.908 12.916h.27l1.198 2.048 1.225-2.048h.238l.157 3.45h-.25l-.118-3.06-1.188 1.972h-.16l-1.158-1.968-.12 3.056h-.248Zm0 0"/>
		<path d="M52.578 15.79a1.235 1.235 0 0 1-.353.38c-.103.076-.228.14-.377.196-.147.054-.324.08-.527.08-.248 0-.473-.043-.679-.136a1.545 1.545 0 0 1-.527-.38 1.676 1.676 0 0 1-.338-.573 2.097 2.097 0 0 1-.12-.718c0-.253.04-.488.12-.706a1.7 1.7 0 0 1 .338-.574 1.588 1.588 0 0 1 1.206-.524c.203 0 .38.027.527.08.149.057.274.121.377.195a1.323 1.323 0 0 1 .353.382l-.186.127a4.569 4.569 0 0 0-.1-.13.956.956 0 0 0-.197-.183 1.231 1.231 0 0 0-.762-.238 1.297 1.297 0 0 0-1.034.453 1.461 1.461 0 0 0-.277.5 1.94 1.94 0 0 0-.096.618c0 .22.032.426.098.617.067.191.16.358.28.5.12.145.267.257.443.338.177.081.378.12.6.12a1.196 1.196 0 0 0 .738-.238 1.15 1.15 0 0 0 .201-.183c.05-.06.086-.103.106-.13zm0 0"/>
		<path d="m55.704 15.02-.717-1.788-.718 1.789zm-.83-2.104h.247l1.412 3.45h-.285l-.45-1.112h-1.623l-.443 1.112h-.27zm0 0"/>
		<path d="M58.522 16.13c.13 0 .263-.004.392-.016.133-.012.25-.042.356-.088a.605.605 0 0 0 .255-.209.65.65 0 0 0 .098-.382.687.687 0 0 0-.096-.38.635.635 0 0 0-.243-.228 1.084 1.084 0 0 0-.328-.112 2.14 2.14 0 0 0-.35-.03h-.76v1.446zm.079-1.678c.09 0 .189-.012.287-.036a.81.81 0 0 0 .264-.118.7.7 0 0 0 .196-.21.556.556 0 0 0 .079-.31.61.61 0 0 0-.076-.328.536.536 0 0 0-.191-.193.744.744 0 0 0-.268-.086 1.965 1.965 0 0 0-.291-.022h-.755v1.303zm-1.005-1.536h1.144a1.2 1.2 0 0 1 .434.071.82.82 0 0 1 .294.186c.076.076.13.167.164.267.035.103.054.211.054.324a.836.836 0 0 1-.174.51.749.749 0 0 1-.193.178.683.683 0 0 1-.255.098c.09.013.184.037.282.071a.86.86 0 0 1 .262.155.79.79 0 0 1 .196.26.92.92 0 0 1 .078.399.897.897 0 0 1-.103.456.765.765 0 0 1-.281.284 1.28 1.28 0 0 1-.414.15 3.063 3.063 0 0 1-.5.039h-.988zm0 0"/>
		<path d="M61.117 12.916h.248v3.45h-.248zm0 0"/>
		<path d="M62.771 12.916h.258l2.212 3.075v-3.075h.243v3.45h-.257l-2.213-3.036v3.036h-.243zm0 0"/>
		<path d="M66.89 12.916h2.069v.233H67.14v1.303h1.422v.233H67.14v1.446h1.953v.235H66.89zm0 0"/>
		<path d="M71.31 13.139h-1.34v-.223h2.926v.223h-1.338v3.225h-.247zm0 0"/>
		<path d="M73.864 15.734c.118.142.258.257.422.345.164.091.362.135.595.135.135 0 .26-.015.37-.046a.812.812 0 0 0 .29-.138.596.596 0 0 0 .19-.227.715.715 0 0 0 .067-.317.641.641 0 0 0-.275-.55 1.024 1.024 0 0 0-.282-.148 4.912 4.912 0 0 0-.318-.103 5.948 5.948 0 0 1-.392-.118c-.13-.041-.248-.1-.35-.169a.829.829 0 0 1-.253-.27.825.825 0 0 1-.096-.42.826.826 0 0 1 .282-.615c.09-.08.204-.143.338-.19.13-.046.282-.068.451-.068a1.417 1.417 0 0 1 .679.162.992.992 0 0 1 .355.313l-.176.15a.914.914 0 0 0-.294-.262 1.135 1.135 0 0 0-.574-.138 1 1 0 0 0-.365.06.7.7 0 0 0-.25.149.571.571 0 0 0-.144.208.625.625 0 0 0-.047.24c0 .125.027.228.084.309.058.08.132.147.225.2.093.055.199.099.314.133.115.034.23.066.348.098.122.032.242.071.362.115.12.047.228.11.324.187a.96.96 0 0 1 .233.294c.058.115.09.262.09.433a.857.857 0 0 1-.093.4.947.947 0 0 1-.252.304 1.2 1.2 0 0 1-.375.19 1.573 1.573 0 0 1-.466.067 1.63 1.63 0 0 1-.402-.047 1.614 1.614 0 0 1-.338-.12 1.45 1.45 0 0 1-.27-.171 1.093 1.093 0 0 1-.188-.199zm0 0"/>
		<path d="M22.519 14.84H8.094v-.15h14.425Zm0 0"/>
		<path d="M92.529 14.84H78.103v-.15H92.53zm0 0"/>
	</symbol>
	<symbol id="w" viewBox="0 0 16.43 11.79">
		<path d="M10.01 1.35c.02-.073.037-.13.037-.186 0-.113-.054-.17-.167-.206-.245-.076-.564-.113-.936-.113-.319 0-.598.057-.86.133-.113.036-.152.093-.152.186 0 .073.02.15.056.243l.993 2.732zm4.303.15c.02-.074.036-.13.036-.187 0-.13-.073-.225-.223-.281a8.274 8.274 0 0 0-1.347-.3l-.13-.56c.84.039 1.384.095 1.945.095.505 0 1.066-.02 1.797-.095l.036.544a1.396 1.396 0 0 0-.86.634c-.411.73-3.648 8.98-4.004 10.216l-.936.394c-.504-1.384-1.404-3.518-2.134-5.278-.747 1.796-1.495 3.742-1.85 4.884l-.973.355C4.621 9.228 1.647 1.968 1.367 1.52 1.086 1.108.597.882.15.772L0 .21c.9.093 1.76.093 2.132.093.375 0 1.536-.037 2.266-.132l.13.544c-.468.073-.916.166-1.235.279-.169.056-.225.15-.225.262 0 .093.037.186.093.319l3.257 8.1 1.59-4.096C7.24 3.634 6.68 2.117 6.324 1.52c-.281-.433-.637-.6-1.122-.769L5.07.192c.73.075 2.154.112 2.975.112 1.29 0 1.872-.02 3.648-.113l.113.525a1.32 1.32 0 0 0-.843.634c-.15.282-.84 1.985-1.534 3.761l1.909 4.622zm0 0"/>
	</symbol>
	<symbol id="map" viewBox="0 0 100 93.143">
		<path d="m26.831 50.254-.01-2.144-.348-.357 1.065-.689 1.423-1.775 1.518-1.015 1.305-1.443.023-.807.991-.12 1.318-1.31.565-.062-2.087.057-.583.265-.328.96-.785-.225-.002-1.353-.659.258-.766-1.546-.9-.895-.866-.099-.684-1.022-.034 2.572-3.546-.077-1.458 1.726-2.67-.068-.876.325.036 2.821-.108 6.703 6.333.046-.006-.707zM63.43 43.442h1.957l-.095 3.406 1.477.005.036-1.775 1.1.005.013-.47 3.852.078.11-8.664-4.245-.08-.025-2.17-1.892.165-.186.762-1.385.81-.245 1.918.508-.147.014.936.645 1.222-.564.06-.528 1.116-.516.015.621.737-.724 1.15z" fill="var(--color-blue)" stroke="var(--color-darkblue)" stroke-width="1" fill-opacity="50%" vector-effect="non-scaling-stroke"/>
		<path d="m58.738 43.191 1.111.866 1.103.043.02-1.625 2.386.047.724-1.151-.62-.737.515-.015.528-1.117.564-.059-.645-1.222-.014-.936-.508.147.245-1.917 1.385-.811.186-.762-4.757-.085.055-2.162-4.25-.091-.038 1.931-1.086.47-.038 1.923-5.201-.107-.163 7.266 2.128-.24.376.425 2.316.841 1.536-.143.739-.478zM12.303 14.928l-6.429-.155-.057 1.798-1.072-.008-.023 1.07-3.23-.068 1.186 8.487 7.38.218.01-.35 3.234.09.224-1.787.152-6.384 1.13-3.571-2.487-.064zM36.41 26.961l-.071 4.276-.722-.005-.025 2.122 7.439.185-.041 2.14 4.581.117.247-8.582-3.563-.09.032-1.797-4.27-.055-.027 1.788zM49.882 89.162l-1.7-1.108-.034-1.018-2.053-.263-.478-.866-.607.485-1.224.121-.634-.488-.157-.806-.852.264-.186-.945-1.228-.423-1.32.43-2.004-.774-.689.371-3.687-.116-.204 8.62 5.284.07 13.144.15-.81-.62-.565-1.598.49-.746z" fill="var(--color-blue)" stroke="var(--color-darkblue)" stroke-width="1" fill-opacity="50%" vector-effect="non-scaling-stroke"/>
		<path d="m46.526 18.583-.045 2.159-2.146-.049-.048 4.634-.032 1.797 11.646.27.022-1.086-.582-.542-.118-.983.433-1.403-.941-.381-1.135-1.208-1.04.302-.854-.594-1.222.302.462-.857-.28-.99.718-.462-.224-.71-.766-.286-.524-1.18-1.004.172-.13-.687-.038 1.827zM70.341 46.87l-.025 1.084.362.002.012-1.087 2.954.118 10.887.07.157-5.972-2.05.098-4.826-.088-5.99-.01-.052 3.606-2.094-.04-.052 2.216zM61.333 13.897l-2.51-.084-.017 1.096.363.014-.116 1.09-.048 4.072-.543-.01-.025 1.463 4.958.122-.03 1.099 2.155.046.17-6.62-.022-1.819.367-.345 1.444.036.017-2.173-.344-1.06-.69-.406.03-.762-.811-.013-.258-1.28-.904-.619-.859-.014-.088 4.04-2.235-.047zM10.648 67.132l.3-1.144-.461-.242.098-1.344-2.91-.03-4.54.062-.14 6.023 1.32.34.634-.152-.177.916.956.305.152.533 1.922 1.409 1.08-.19-.13.501 2.988.174-.018.694 1.662.052-.035-.829-1.847-2.425-.35-1.004.246-.875zM11.058 33.788l-1.676.125.47 1.011-.53.548-.566-.274-.682.843-1.95-.093-.455-.58-.04-.915-1.156-.78-.56 1.301-.328 11.355 1.602-.69.367.337 2.386-.492.046-2.18-.449-.195 2.205-.838.025-1.07 2.168.06.053-1.785-1.088-.052z" fill="var(--color-blue)" stroke="var(--color-darkblue)" stroke-width="1" fill-opacity="50%" vector-effect="non-scaling-stroke"/>
		<path d="m44.287 25.327.106-6.785-8.545-.183.02-1.08-2.16-.035.123 1.076-.256 8.584 2.835.057 3.58.099.027-1.788zM6.21 51.392l-.017.71 6.001.119v.225l1.767.077-.01.353 1.051.009.158-1.156 1.775-.14.002-.35 1.428-.305.108-6.703-7.403-.168.013-.671-1.366-.041.025-1.08-2.205.838.45.195-.047 2.18-2.386.492-.367-.336-1.602.689-.136 5.002zM37.797 48.919l-1.788-.67-4.891-.068-.027 2.105 2.124-.01-.01 2.13L33 53.57l2.092.051-.029 1.07 1.382.019.33.69-.035 1.422 1.101.007-.01.714 1.079.021-.024 1.418 1.239.04.705-1.033 3.698.089.021-1.067 3.163.056.032-2.126-2.098-.035.042-1.054-1.971-.032.038-1.099-1.146-.041-1.034-.383.043-1.761-2.093-.07.063-2.128-1.776-.043zM69.414 14.991l.43.98 1.177.386.382.79.368-.803 4.718.045.07-3.438 1.1.2.06-3.31-.627-.613.203-1.189-.297-.329-12.479.034.904.62.258 1.28.81.012-.028.762.689.406.344 1.06-.006 1.815.634.821z" fill="var(--color-blue)" stroke="var(--color-darkblue)" stroke-width="1" fill-opacity="50%" vector-effect="non-scaling-stroke"/>
		<path d="m41.619 50.535-.043 1.761 1.034.383 1.146.041-.038 1.1 1.97.031-.04 1.054 2.097.035-.032 2.126 4.324.1.009-3.213-1.679-.04.4-2.14.296-.47.156-6.879-3.14-.066-.048 2.125-3.796-.1-.61.689.15.855-.827-2.013-1.217-.06-.007.417-2.067-.071-.043.714-2.078-.03-.036 1.405.313.005 1.776.043-.063 2.128zM63.43 43.442l-.072-.92-2.386-.047-.02 1.625-1.103-.043-1.111-.866-1.403.3-.74.479-.028 2.66 2.209.046-.142 6.042 1.248 1.12-.534 1.127.61.801-.658.61-.21.97 1.649.031.025-2.119 4.342.106.014-.714-1.417-.4.014-1.417 1.45.034.208-4.935.399-.08-.482-1.004.095-3.406zM36.339 31.237l.071-4.276-7.107-.157-.066 3.232-1.07-.028-.049 3.209-1.45-.033-.06 3.503.413.245.684 1.022.866.099.9.895.766 1.546.659-.258.002 1.353.785.226.328-.961.583-.265 2.91-.108.113-9.25zM6.21 51.392l-2.76-.06-.316 13.102 4.54-.062-.003-1.867-.243.004.027-2.09 6.398.13.108-8.026-1.767-.077v-.225l-6.001-.118zM82.65 33.877l4.313.077.01-6.438-4.287-.182-2.263.075-8.487-.108-.048 6.546 2.169.027 6.42-.17zM23.447 70.07l1.67-.005-.117-.707-1.095-1.525-.557-3.785-.812-.2.012-.962.424.011.036-2.125-5.301-.175-3.854-.048-.032 2.108.256.006-.034 1.854 2.11.064-.048 4.233 1.476.054 4.421 1.534zM71.55 60.876l-.459 2.107.373.798-.677.968.193.868-.666.532 3.262.007.905-1.13 1.258.692.802-.65-.188-.467-1.43.025-.982-1.292 1.786.698.292-1.402 1.363-.392.487-.631-.487-.881.181-.594 1.593-.1-.33 1.184.717-.114-.022-1.174 1.56-.847.284-.46-.47-1.344.883-1.91-.718-.995-.03-.906-9.393-.105-.057 4.254 1.088.034-.041 3.234z" fill="var(--color-blue)" stroke="var(--color-darkblue)" stroke-width="1" fill-opacity="50%" vector-effect="non-scaling-stroke"/>
		<path d="m39.657 46.2 2.067.071.007-.417-.884-.565-.104-.865.707-.633.356-1.017-.284-.836-1.103.817-.701.087.426-.794-1.04.744-.82.167-6.5-.128-1.305 1.443-1.518 1.015-1.423 1.775-1.065.69.347.356.011 2.144 4.26.032.027-2.105 4.891.068 1.788.67.016-.625-.313-.005.036-1.405 2.078.03zM31.966 74.574l-.79-.44-.667.279-.243 7.8-.052 1.741 6.502.188.69-.37 2.002.773 1.321-.43.542.154-.367-.74-1.356-.864-1.04.067-.224-1.21-1-.303.137-.877.954-.945-.313-1.872 1.493-.31 1.36-1.829.038-1.582-6.222-.184-.492-.283-1.5 1.067zM22.988 16.996l-.012 1.084.693.016-.102 2.807-1.087 1.045-.374 1.081.088 2.917-.007.72 11.388.238.256-8.584-.123-1.076zM30.266 82.213l.243-7.8-.701-.911-.804.352-.383-.485-1.845-.598-.416-1.496-1.243-1.21-1.67.006-.084 3.184-.206-.004-.258 9.098 2.373.064 2.893.098.005-.35zM13.952 52.876l-.099 7.673 3.854.048 5.301.175 1.412.034.118-8.406.16-1.42-6.333-.046-1.428.304-.002.351-1.775.14-.158 1.156zM65.106 55.364l1.73.04-.192.624.79.218-.039.616 1.09.454-.19.958.881-.161 1.34 2.357 1.033.406 1.078.007.041-3.234-1.088-.034.11-6.407-1.064-.02.052-3.232-.362-.002.025-1.085-.717-.002.052-2.215-1.758-.04-.013.471-1.1-.005-.036 1.775-1.477-.005.482 1.004-.4.08-.207 4.935-1.45-.034-.014 1.417 1.417.4zM96.299 26.115l.791-1.196 1.55-.358-.099-.478-1.045-.45-.084-.846 1.019-.368.758.508.647-.463-.228-.53-1.256-1.05-.287-.8-11.141.105.04 13.765 2.942.05.427-.78.68-.258.616 2.2.256-.18.455-1.676-.632-1.271.213-.777 1.008-.297.664.848.768.283.164-.585-.633-.462-.13-1.072 1.828-.845-.029-.836-1.43.23-.528-.78.11-1.182.859-.526.619.538zM18.627 84.124l-.723-1.144.207-1.467-.62-.827-.377.43-.558-1.592-.526-.288.018-.798-.768-.014-.67.93-.748-.195-.08.772-.57-.8-.25 1.079-.607-.695-.666.308.01 12.78 4.77-.006-1.112-1.749.206-1.261 2.002-.924.956-1.484-.383-1.027.52.338-.074-.91.676-.472-.848-.238zM43.238 13.853l-1.483-.433.395-.73-1.398-1.488 1.201-.705.083-2.789-6.512.02-.014.827-.607-.655-.114 9.37 1.079.008-.02 1.081 8.545.183-.01-2.465-.599-.051-.771-.874.419-.388z" fill="var(--color-blue)" stroke="var(--color-darkblue)" stroke-width="1" fill-opacity="50%" vector-effect="non-scaling-stroke"/>
		<path d="m14.347 26.038.004-.355 7.843.263-.088-2.917.374-1.081 1.087-1.045.102-2.807-.693-.016.012-1.084-1.431-.025.007-.716-.698-.018.012-.745-.703-.385.036-1.433-.874-.396.084-.703-4.238-.11-.01 1.807-.366-.004-1.13 3.57-.151 6.385-.224 1.788zM50.24 43.087l-.032 1.327 1.011.01-.156 6.879-.297.47-.399 2.14 1.679.04-.009 3.213 7.054.18.209-.97.659-.61-.61-.801.533-1.126-1.248-1.12.142-6.043-2.209-.047.029-2.66-1.536.144-2.316-.841-.376-.424zM19.312 41.085l2.67.068 1.46-1.726 3.545.077.034-2.572-1.094-.589-1.704.358.072-.945-.322-1.435-.653-.013-.632.672-.652-.283-1.353.607-1.322-.496-.99.703-.779.265-1.161-1.61-.067 2.874-2.144-.145-.062 2.198-2.166-.043-.057 2.212-2.168-.061-.025 1.07-.025 1.08 1.366.04-.013.672 7.403.168-.036-2.82zM14.23 77.956 13.247 77l.287-.902-.12-1.054-1.693-.056.018-.694-2.988-.174.13-.501-1.08.19-1.922-1.409-.152-.533-.956-.305.177-.916-.634.152-1.32-.34-.172 7.306 1.93 2.194.72.065.163-.56.72.375.52-.726.155.574 1.136.047.698-.927.741.709 1.301-.255.782.564.666-.308.607.695.25-1.08.57.8.08-.77.748.194.67-.93.768.014-.947-.584zM53.576 69.58l-.465-.002.007 4.478 6.259-.01 2.126.213.18-4.668 1.662.023.01-.701.872-.233-.48-1.588-1.224.138-.907-.764-1.008.433-.007-.721-1.825-1.278-.673-.083.014 2.635-.369-.696-4.18.014zM81.862 52.342l-.104 1.375.595.005 1.093-1.381-.4-.342-1.273-.01-.428-.518.643-.653-.251-.711.666-.551.265.658-.376 1.047 1.357-.195-.396-1.526.308-.512-.54-.926.354-.724.558.155.192 1.056.417.204-.011-1.736-10.887-.07-2.954-.118-.012 1.087-.052 3.232 1.063.02-.052 2.153 9.393.105-.104-.72zM69.414 14.991l-1.29-.47-.634-.822-.01.358-1.445-.036-.367.345.022 1.819-.17 6.62 3.178.015 6.528.225.012-1.075.401-1.08-.123-.558.755-2.214 1.008-.746.406-.967-5.914-.06-.368.803-.382-.791-1.177-.385zM18.584 85.58l.075.91-.52-.338.382 1.027-.956 1.484-2.002.924-.206 1.261 1.111 1.749 6.302.025.174-5.783.798.043.256-1.373 1.274-3.096-2.373-.064.018-.695-4.806-.141-.207 1.467.723 1.144-.215.746.848.238z" fill="var(--color-blue)" stroke="var(--color-darkblue)" stroke-width="1" fill-opacity="50%" vector-effect="non-scaling-stroke"/>
		<path d="m24.223 36.701 1.704-.358.68.344.061-3.503 1.45.033.048-3.21 1.07.03.067-3.233-7.116-.138.007-.72-3.542-.125-.281 9.69.99-.703 1.322.496 1.353-.607.652.283.632-.672.653.013.322 1.435zM61.842 63.591l-3.428-.223.13-6.04-10.074-.246-.099 6.373-.391-.012-.018 4.08 5.602-.046.003-.707 4.181-.014.369.696-.014-2.635.673.083 1.825 1.278.007.721 1.008-.433.907.764 1.225-.138.055-1.099-1.466-.48zM65.27 31.794l-4.254-.099-.055 2.162 4.757.085 1.892-.165.025 2.17 4.246.08.055-8.726.09-4.36-3.328-.121-.678 1.911-1.124.775-1.197 1.538-.104.993.567 1.03-.875-.073zM58.437 21.538l.025-1.464.543.01.048-4.071.116-1.09-.363-.014.016-1.096-9.33-.197-.057 2.172-1.083-.033-.027 1.035.392.01.129.688 1.004-.172.524 1.18.766.286.224.71-.718.462.28.99-.462.857 1.222-.302.854.594 1.04-.302 1.135 1.208.941.38 1.924-1.866z" fill="var(--color-blue)" stroke="var(--color-darkblue)" stroke-width="1" fill-opacity="50%" vector-effect="non-scaling-stroke"/>
		<path d="m65.27 31.794.017-2.8.875.074-.567-1.031.104-.993 1.197-1.538 1.124-.775.678-1.911-5.333-.061.03-1.1-5.815-.146-1.924 1.867-.433 1.403.118.983.582.542-.022 1.086.949-.168-.084 4.378zM7.428 62.509l.243-.004.004 1.867 2.91.03-.098 1.344.461.242-.3 1.144.75 2.774-.246.875.35 1.004 1.847 2.425.035.829 2.553.08.216-10.538-2.11-.064.034-1.854-.256-.006.032-2.108-6.398-.13zM37.831 57.542l.011-.714-3.542-.068.032 1.401-.689-.016-.005 1.452-9.2-.185-.018 1.394 1.05.02-.02 1.418 3.175.071-.022.71 2.19.056 1.11.224-.168 1.362.351.49 6.957.253.195-6.417-.35-.012.023-1.418z" fill="var(--color-blue)" stroke="var(--color-darkblue)" stroke-width="1" fill-opacity="50%" vector-effect="non-scaling-stroke"/>
		<path d="m14.23 77.956.87-.102.948.584-.018.798.526.288.558 1.591.376-.43.621.828 4.806.141.24-8.403.206.004.084-3.184-1.445.33-4.42-1.533-1.477-.054-.168 6.306-2.522-.077.12 1.054-.287.902zM78.369 13.448l-1.815.027-.065 2.914 1.196.016-.406.967-1.008.746-.755 2.214.123.558 9.314.08.19-.767 1.7-2.94 1.237-.819.227-.934.6-.41-2.626.022.027-1.459-2.851-.014zM47.98 63.443l.391.012.099-6.373-3.92-.072-.021 1.067-3.698-.09-.705 1.033-.888-.027-.195 6.417 3.703.13 2.058 1.01 1.089 1.038 2.069-.064zM33.643 58.145l.69.016-.033-1.401 2.441.06.034-1.42-.329-.691-1.382-.018.029-1.07L33 53.568l.204-1.162.01-2.132-8.523-.002.006.707-.16 1.42-.1 7.012 9.2.185zM63.572 11.77l.088-4.04-14.034-.022-.134 5.908 11.841.281.004-2.174zM14.22 36.895l2.144.145.067-2.875 1.161 1.611.779-.265.28-9.69-4.3-.138-.018 1.07-1.056-.032-.4 1.76-1.789-.034-.055 2.137 1.065.032-.358 1.076.234.576-.575.83.622.292-.963.398-.158 5.636 1.088.052.004-.426 2.166.043zM42.614 40.455l-.416 1.437-.676.046.284.836-.356 1.017-.707.633.104.865.884.565 1.217.06.827 2.013-.15-.855.61-.69 3.796.1.049-2.124 2.128.056.195-8.593-7.413-.142-.072 2.284-.863 1.1-.012 1.007zM53.118 74.056l-.002 6.31-.637.007.356 3.151 10.676.222.142-9.416-2.15-.071-2.126-.213z" fill="var(--color-blue)" stroke="var(--color-darkblue)" stroke-width="1" fill-opacity="50%" vector-effect="non-scaling-stroke"/>
		<path d="m69.643 70.54-.504-.521-.677.094-.5-.52-2.267.526.53-1.092-1.03.433-.968-.78-.871.233-.011.701-1.663-.023-.179 4.668 2.15.071-.063 5.22 2.084.001-.027 1.06 2.104.059.3-1.065 1.578-.514.435-.56-.818-1.006-.999-.365.267-.895.94-.168.55.73 1.1.446.964-.71-.76-.692-.988.27-.576-.61.234-1.247.55.282 1.07-.195 1.077.23.168-.564-1.104-.55-.524-1.013 1.256-1.74-1.56-.74.005-.367 1.383-.675.376.89.772-.326-.527-.945 1.824-.136.525-1.445-1.012-.234-.681-.6-3.262-.007-1.53 1.165-.01.88 1.243 1.918zM34.731 71.388l-.125 1.099.46.277-.335.856 11.21.356-.156-1.095-1.083-1.11-.522-1.32-1.072-.762.077-2.04 2.708-.06-1.089-1.039-2.058-1.01-7.87-.282-.136 4.175-1.364.204zM71.888 33.847l-.067 7.238 5.991.01 4.825.088-.07-.847.083-6.459-2.173-.174-6.42.17z" fill="var(--color-blue)" stroke="var(--color-darkblue)" stroke-width="1" fill-opacity="50%" vector-effect="non-scaling-stroke"/>
		<path d="m89.906 34.004-7.256-.127-.083 6.46.07.846 2.051-.098-.157 5.972.01 1.736 1.354-.67.72-.003-.182-.272 1.271-.87-.095-1.179-1.09-.98.346-1.128 1.655.374.718-2.243.693-.39.77.424.681-.472-.809-.754.555-1.521-.404-.555-1.19-.276-.099-.823 1.095-.218.036-.937.648-1.009-.79-.66-.636.284.214.56-.878-.207.205-.902zM11.74 31.692l.358-1.076-1.065-.032.055-2.137 1.788.034.401-1.76 1.056.033.014-.716-4.28-.118-.01.35-7.38-.218.41 2.977.826 5.945.56-1.301 1.156.78.04.915.454.58 1.951.093.682-.843.566.274.53-.548-.47-1.011 1.676-.125.963-.398-.622-.291.575-.831zM85.143 20.203l-.19.768-9.314-.08-.4 1.079-.013 1.075-3.2-.104-.09 4.36 8.487.108 2.263-.075 4.286.182-.048-7.327zM42.043 40.07l.012-1.006.863-1.1.113-4.425-7.439-.185-.087 7.127-1.39.113-1.317 1.31-.991.12-.023.807 6.5.128.82-.167 1.04-.744-.426.794.701-.087 1.103-.817.676-.046.416-1.437zM28.17 82.16l-.005.351-2.893-.098-1.274 3.096-.256 1.373-.798-.043-.174 5.783 10.055.023.204-8.62-2.815-.071.052-1.741zM43.108 69.69l1.072.762.522 1.319 1.083 1.11.156 1.095-.156 1.256.222.849 7.116.082-.012-6.585.465.002-.012-2.103-7.671.111-2.708.06zM55.901 27.394l-8.083-.18-.247 8.582 2.832.025 5.201.107.038-1.924 1.086-.469.122-6.309zM89.66 7.723 76.998 7.71l.297.33-.203 1.188.627.614-.06 3.31-1.1-.201-.005.524 1.815-.027 5.088.2 2.851.015-.027 1.459 2.626-.022 1.31-.845.16-.703.663-.211.394-.764-.356-.46.374-1.55-1.29-.684zM22.972 62.897l-.424-.01-.012.96.812.2.557 3.786L25 69.358l.117.707 1.243 1.21.416 1.496 1.845.598.383.485.804-.352.701.91.668-.279.79.44.772-.17 1.5-1.066.492.283.335-.856-.46-.277.125-1.1-1.355-1.75 1.364-.204.136-4.175-2.79-.1-.35-.49.167-1.363-1.11-.224-2.19-.057.022-.709-3.176-.071.02-1.418-2.46-.054zM65.647 80.61l.027-1.059-2.084-.002-.14 13.372 5.9.043-.006-.174.747-.531.09-.73-1.533-1.055.347-.802 1.592.242.336-.326-.084-1.81.965-1.288-.822-.066-.311.94-.824-1.445-.02-1.213 1.685-1.914-.394-.646-.859 1.611-.915.213-.86-.607 1.55-.605.137-1.023-.793-.602-.098 1.097-1.316.315 1.039-1.42-.648-.752-.305-.768-.299 1.065zM16.255 12.487l3.166.088-.084.703.874.396-.036 1.433.703.385-.012.745.698.018-.007.716 5.027.12.075-9.374-11.431-.012-.023 4.054z" fill="var(--color-blue)" stroke="var(--color-darkblue)" stroke-width="1" fill-opacity="50%" vector-effect="non-scaling-stroke"/>
		<path d="m46.05 78.266.174-1.575-.439-1.459.156-1.256-4.988-.172-.038 1.582-1.36 1.83-1.493.309.313 1.872-.954.945-.137.877 1 .303.224 1.21 1.04-.067 1.356.865.367.739.686.269.186.945.852-.264.157.806.634.488 1.224-.121.607-.485-.575-.398.092-1.516.66-.857.61-2.05z" fill="var(--color-blue)" stroke="var(--color-darkblue)" stroke-width="1" fill-opacity="50%" vector-effect="non-scaling-stroke"/>
		<path d="m46.095 86.773 2.053.263.034 1.018 1.7 1.108.204-1.11.929-.062-.072-.693.81-.383.042-.51 1.298-.57-.206-.937.553-.882-.605-.49-.356-3.152.637-.008.007-4.202-7.116-.082.217.61-.174 1.575.354 2.82-.61 2.05-.66.857-.092 1.516.575.398zM34.903 7.9l.607.655.014-.827-8.865-.01-.075 9.373 7.124.153 1.08.025zM4.722 17.633l.023-1.07 1.072.008.057-1.798 6.43.155.017-.724 2.851.068.011-1.806 1.072.021-1.05-.728.023-4.054-15.05-.018 1.315 9.878zM42.15 12.69l-.395.73 1.483.433.194.91-.42.39.772.873.6.051.009 2.465-.058 2.151 2.146.049.045-2.159 2.152.045.039-1.827-.392-.011.027-1.035 1.083.033.191-8.08h-7.59l-.083 2.789-1.2.705z" fill="var(--color-blue)" stroke="var(--color-darkblue)" stroke-width="1" fill-opacity="50%" vector-effect="non-scaling-stroke"/>
		<path d="m50.943 87.297.072.693-.929.063-.204 1.11.487.739-.49.746.563 1.598.811.62 12.198.055.06-9.175-10.676-.222.605.49-.553.883.206.936-1.298.571-.043.51zM66.835 55.405l-6.07-.147-.026 2.12-2.194-.05-.13 6.04 3.427.223.495 1.923 1.466.48-.055 1.098.48 1.588.968.78 1.029-.433-.53 1.092 2.268-.526.499.52.677-.094.504.52.374-.427-1.244-1.917.011-.88 2.196-1.698-.193-.868.677-.968-.373-.798.458-2.107-1.032-.406-1.34-2.357-.881.16.19-.957-1.09-.454.039-.616-.791-.218z" fill="var(--color-blue)" stroke="var(--color-darkblue)" stroke-width="1" fill-opacity="50%" vector-effect="non-scaling-stroke"/>
	    <path d="M9.157.41c.006-.023.012-.04.012-.057 0-.034-.017-.052-.05-.063a.987.987 0 0 0-.545.006c-.034.011-.046.028-.046.057a.2.2 0 0 0 .017.073l.3.828zm1.304.044c.006-.022.011-.039.011-.056 0-.04-.022-.068-.067-.085a2.507 2.507 0 0 0-.408-.091l-.04-.17c.255.012.42.029.59.029.153 0 .323-.006.544-.029l.011.165a.424.424 0 0 0-.26.192c-.125.221-1.106 2.722-1.214 3.096l-.283.12c-.153-.42-.426-1.067-.647-1.6a20.197 20.197 0 0 0-.56 1.48l-.296.107C7.525 2.796 6.623.596 6.538.46 6.453.336 6.305.267 6.17.234l-.045-.17c.273.028.533.028.646.028.114 0 .466-.011.687-.04l.04.165c-.142.022-.278.05-.375.084-.051.018-.068.046-.068.08 0 .028.011.056.028.096l.987 2.455.482-1.241C8.318 1.1 8.148.64 8.04.46 7.955.33 7.848.278 7.7.227l-.04-.17c.22.023.652.034.9.034.392 0 .568-.006 1.107-.034l.034.159a.401.401 0 0 0-.256.192 25.08 25.08 0 0 0-.465 1.14l.579 1.4zM13.67 1.514c0-.688-.48-1.234-1.035-1.234-.569 0-.945.565-.945 1.182 0 .679.495 1.31 1.05 1.31.598 0 .93-.631.93-1.258m.451-.17c0 .37-.095.721-.29.987-.255.356-.778.707-1.21.707-.721 0-1.372-.579-1.372-1.386 0-.356.081-.632.262-.883.256-.356.792-.769 1.224-.769.85 0 1.386.607 1.386 1.343M16.988 1.514c0-.688-.479-1.234-1.034-1.234-.57 0-.945.565-.945 1.182 0 .679.493 1.31 1.049 1.31.598 0 .93-.631.93-1.258m.452-.17c0 .37-.095.721-.29.987-.257.356-.779.707-1.211.707-.721 0-1.371-.579-1.371-1.386 0-.356.08-.632.26-.883.257-.356.793-.769 1.225-.769.85 0 1.387.607 1.387 1.343M18.474 2.45c0 .104.01.208.024.261.105.047.318.076.508.076.664 0 1.073-.498 1.073-1.325 0-.797-.54-1.206-1.173-1.206-.156 0-.318.02-.403.052a.542.542 0 0 0-.029.214zm2.08-1.016c0 1.054-.736 1.557-1.52 1.557-.241 0-.413-.01-.588-.02a4.324 4.324 0 0 0-.78.01l.044-.137a.747.747 0 0 0 .304-.095.843.843 0 0 0 .038-.29V.46a.591.591 0 0 0-.033-.199c-.048-.033-.21-.066-.309-.076l-.048-.143c.171.024.314.034.456.034.124 0 .252-.005.394-.014.143-.01.295-.014.432-.014.879 0 1.61.574 1.61 1.386M23.203.527a.802.802 0 0 0-.029-.223c-.07-.052-.219-.076-.328-.086l-.038-.151c.186.009.385.018.594.018.195 0 .346-.01.513-.018l.033.142a.927.927 0 0 0-.3.07 1.44 1.44 0 0 0-.023.305v1.9c0 .089.005.19.019.241.08.052.261.09.413.11l-.047.132a11.188 11.188 0 0 0-1.12 0l.037-.128c.095-.019.214-.062.247-.105.014-.052.029-.166.029-.318V1.6h-1.43v.926c0 .072.005.162.02.209.061.039.237.086.398.11l-.042.123a7.621 7.621 0 0 0-.49-.014c-.208 0-.45.009-.612.019l.024-.128c.104-.02.219-.057.251-.1a.86.86 0 0 0 .024-.233V.503a.627.627 0 0 0-.028-.223.989.989 0 0 0-.313-.071l-.038-.157c.204.015.465.028.678.028.147 0 .323-.004.451-.013l.02.137a.88.88 0 0 0-.314.076c-.02.047-.029.204-.029.337v.73h1.43zM25.31 1.642h.874L25.738.437zm.95.214h-1.036l-.298.76a.16.16 0 0 0-.02.08c0 .03.048.053.124.071.095.03.275.052.399.062l-.066.152a6.237 6.237 0 0 0-.528-.028c-.09 0-.28.005-.507.028l.047-.142c.11-.02.204-.062.252-.161.1-.19.944-2.299 1.025-2.616l.351-.052c.176.565.983 2.51 1.059 2.625.066.104.209.184.38.208l-.057.134a7.363 7.363 0 0 0-.598-.03c-.095 0-.413.015-.593.034l.042-.142c.128-.01.218-.028.285-.048.047-.018.076-.042.076-.076a.318.318 0 0 0-.034-.118zM29.445.403a.12.12 0 0 0 .014-.052c0-.033-.014-.052-.052-.067a1.873 1.873 0 0 0-.332-.094l-.048-.133c.214.024.437.028.556.028.095 0 .2 0 .412-.028l.034.128a.472.472 0 0 0-.26.186c-.106.18-1.026 2.25-1.112 2.563l-.237.119c-.242-.67-.974-2.54-1.05-2.65a.505.505 0 0 0-.308-.199l-.043-.138a5.814 5.814 0 0 0 1.149-.009l.047.128c-.109.014-.218.033-.313.053-.047.014-.067.028-.067.066 0 .023.01.061.03.119l.75 1.989zM32.521 2.165a6.945 6.945 0 0 1-.209.82 9.75 9.75 0 0 0-.902-.032c-.26 0-.688.005-1.14.024l.039-.134a.833.833 0 0 0 .313-.094.929.929 0 0 0 .038-.28V.478a.51.51 0 0 0-.028-.19c-.062-.042-.19-.065-.294-.076L30.29.057c.195.014.546.024.798.024.365 0 .716-.01 1.12-.057.009.323.014.593.038.85l-.1.004a7.257 7.257 0 0 0-.204-.513c-.024-.047-.033-.057-.071-.061a3.463 3.463 0 0 0-.356-.014c-.152 0-.361.01-.408.028-.02.053-.02.147-.02.257v.759c.076.005.176.005.276.005.18 0 .356-.005.45-.014l.12-.276.085.014c-.01.143-.014.28-.014.37 0 .176.004.328.024.466l-.09.01-.148-.319c-.114-.005-.242-.005-.385-.005-.109 0-.228 0-.322.005v.883c0 .09.005.18.024.238.142.019.332.028.512.028.124 0 .266-.004.346-.01.09-.014.134-.028.167-.07.08-.11.195-.333.266-.495zM35.65.34c-.066-.045-.258-.09-.382-.102l-.056-.18c.23.023.416.029.619.029.208 0 .416-.017.562-.028l.034.174c-.113.005-.32.056-.388.09a1.693 1.693 0 0 0-.022.298l-.012 2.221c0 .208 0 .394.017.653l-.265.13c-.314-.485-1.602-2.24-2.165-2.981v2.294c0 .107.006.225.028.292.063.045.389.118.513.13l-.057.146c-.174-.01-.382-.01-.568-.01-.197 0-.427.004-.618.015l.033-.151a.635.635 0 0 0 .299-.113.98.98 0 0 0 .033-.304V.818c0-.202-.011-.41-.04-.495a1.043 1.043 0 0 0-.336-.09l-.04-.185c.202.01.354.028.529.028.13 0 .258-.012.416-.028l1.912 2.637c0-.76-.006-1.423-.006-2.025 0-.134-.016-.275-.04-.32M14.441 4.785a.353.353 0 0 1-.108.115.452.452 0 0 1-.273.084.49.49 0 0 1-.366-.157.533.533 0 0 1-.102-.174.646.646 0 0 1-.036-.217c0-.077.012-.148.036-.214a.54.54 0 0 1 .102-.174.475.475 0 0 1 .366-.159.466.466 0 0 1 .274.084.377.377 0 0 1 .107.115l-.056.039-.031-.04a.386.386 0 0 0-.154-.106.374.374 0 0 0-.137-.021.403.403 0 0 0-.397.289.588.588 0 0 0 .002.374c.019.058.047.108.084.152a.384.384 0 0 0 .135.102.43.43 0 0 0 .31.015.44.44 0 0 0 .094-.05.302.302 0 0 0 .061-.056l.033-.04zM14.804 3.914h.075v.59c0 .059.006.114.015.164.01.05.026.093.05.13a.243.243 0 0 0 .1.085c.042.02.095.03.16.03s.118-.01.16-.03a.248.248 0 0 0 .1-.085.345.345 0 0 0 .05-.13.931.931 0 0 0 .014-.164v-.59h.075v.628c0 .062-.006.12-.019.173a.372.372 0 0 1-.066.14.316.316 0 0 1-.123.095.467.467 0 0 1-.191.034.462.462 0 0 1-.19-.034.311.311 0 0 1-.124-.095.35.35 0 0 1-.066-.14.713.713 0 0 1-.02-.173zM16.016 4.768a.425.425 0 0 0 .127.105c.05.027.11.04.18.04.042 0 .079-.004.113-.014a.246.246 0 0 0 .087-.041.179.179 0 0 0 .058-.07.217.217 0 0 0 .02-.095.202.202 0 0 0-.023-.099.204.204 0 0 0-.06-.068.321.321 0 0 0-.085-.045 1.462 1.462 0 0 0-.097-.031c-.039-.01-.08-.022-.119-.036a.42.42 0 0 1-.106-.05.257.257 0 0 1-.076-.083.25.25 0 0 1-.03-.127.25.25 0 0 1 .022-.102.253.253 0 0 1 .064-.085.313.313 0 0 1 .102-.057.414.414 0 0 1 .137-.02.43.43 0 0 1 .206.048.343.343 0 0 1 .108.095l-.054.046a.342.342 0 0 0-.089-.08.35.35 0 0 0-.174-.041.306.306 0 0 0-.11.018.21.21 0 0 0-.077.045.19.19 0 0 0-.058.136c0 .038.01.069.026.093.017.025.04.045.069.061.028.016.06.03.095.04l.105.03c.037.01.073.022.11.035a.36.36 0 0 1 .097.056.27.27 0 0 1 .098.22.251.251 0 0 1-.028.122.276.276 0 0 1-.076.092.372.372 0 0 1-.113.058.486.486 0 0 1-.447-.082.287.287 0 0 1-.057-.06zM17.325 3.981h-.406v-.067h.887v.067H17.4v.978h-.075zM18.498 4.913a.423.423 0 0 0 .408-.29.552.552 0 0 0 0-.372.434.434 0 0 0-.227-.254.422.422 0 0 0-.181-.037.42.42 0 0 0-.407.291.552.552 0 0 0 .088.524.415.415 0 0 0 .319.138m0 .07a.502.502 0 0 1-.48-.33.57.57 0 0 1-.038-.216.571.571 0 0 1 .147-.389.51.51 0 0 1 .164-.117.514.514 0 0 1 .207-.042c.076 0 .145.015.208.042a.507.507 0 0 1 .272.292c.026.067.039.138.039.214 0 .078-.013.15-.04.216a.503.503 0 0 1-.48.331M19.43 3.914h.081l.364.62.37-.62h.073l.047 1.045h-.075l-.036-.927-.36.598h-.048l-.352-.597-.036.926h-.075zM22.057 4.785a.374.374 0 0 1-.107.115.466.466 0 0 1-.274.084.492.492 0 0 1-.365-.157.508.508 0 0 1-.103-.174.628.628 0 0 1-.036-.217.61.61 0 0 1 .036-.214.515.515 0 0 1 .103-.174.472.472 0 0 1 .365-.159.466.466 0 0 1 .274.084.401.401 0 0 1 .107.115L22 4.127a1.39 1.39 0 0 0-.03-.04.29.29 0 0 0-.06-.055.373.373 0 0 0-.23-.072.393.393 0 0 0-.313.137.443.443 0 0 0-.085.152.588.588 0 0 0 .001.374.47.47 0 0 0 .085.152c.036.043.08.077.134.102a.433.433 0 0 0 .311.015.447.447 0 0 0 .095-.05.349.349 0 0 0 .06-.056.986.986 0 0 0 .032-.04zM23.004 4.552l-.217-.542-.218.542Zm-.251-.638h.075l.427 1.045h-.086l-.136-.337h-.492l-.134.337h-.082zM23.858 4.888c.04 0 .08-.001.119-.005a.342.342 0 0 0 .108-.027.183.183 0 0 0 .077-.063.197.197 0 0 0 .03-.116.208.208 0 0 0-.03-.115.192.192 0 0 0-.073-.069.329.329 0 0 0-.1-.034.662.662 0 0 0-.106-.009h-.23v.438zm.024-.509a.362.362 0 0 0 .087-.01.245.245 0 0 0 .08-.036.212.212 0 0 0 .06-.064.169.169 0 0 0 .023-.094.185.185 0 0 0-.023-.1.162.162 0 0 0-.058-.058.225.225 0 0 0-.08-.026.595.595 0 0 0-.089-.007h-.229v.395zm-.304-.465h.346c.05 0 .095.007.132.021a.245.245 0 0 1 .089.057c.023.023.04.05.05.08.01.032.016.065.016.099a.253.253 0 0 1-.111.208.207.207 0 0 1-.078.03.437.437 0 0 1 .086.022.24.24 0 0 1 .139.125.279.279 0 0 1 .023.121c0 .057-.01.103-.03.138a.232.232 0 0 1-.086.086.382.382 0 0 1-.126.046.894.894 0 0 1-.151.012h-.3zM24.645 3.914h.075v1.045h-.075zM25.146 3.914h.078l.67.932v-.932h.074v1.045h-.078l-.67-.92v.92h-.074zM26.394 3.914h.627v.07h-.551v.395h.43v.071h-.43v.438h.592v.071h-.668zM27.734 3.981h-.407v-.067h.887v.067h-.405v.978h-.075zM28.507 4.768a.425.425 0 0 0 .128.105c.05.027.11.04.18.04.041 0 .08-.004.113-.014a.246.246 0 0 0 .087-.041.18.18 0 0 0 .058-.07.217.217 0 0 0 .02-.095.194.194 0 0 0-.083-.167.31.31 0 0 0-.085-.045c-.032-.01-.064-.022-.097-.031-.04-.01-.08-.022-.119-.036a.427.427 0 0 1-.106-.05.251.251 0 0 1-.076-.083.25.25 0 0 1-.03-.127.25.25 0 0 1 .085-.186.31.31 0 0 1 .103-.058.407.407 0 0 1 .137-.02.43.43 0 0 1 .206.048.3.3 0 0 1 .107.095l-.053.046a.277.277 0 0 0-.163-.11.401.401 0 0 0-.21.007.212.212 0 0 0-.076.045.173.173 0 0 0-.044.063.19.19 0 0 0-.014.073c0 .038.008.069.025.093.018.025.04.045.068.061.029.016.06.03.095.04l.106.03c.037.01.073.022.11.035a.29.29 0 0 1 .169.146.29.29 0 0 1 .027.13.26.26 0 0 1-.105.214.364.364 0 0 1-.113.058.494.494 0 0 1-.447-.082.331.331 0 0 1-.058-.06zM12.948 4.497H8.577v-.045h4.371zM34.163 4.497h-4.371v-.045h4.371zm0 0" fill="var(--color-white)"/>
		<circle cx="21.276" cy="9.968" r="3.03" fill="var(--color-champagne)"/>
		<circle cx="21.276" cy="9.968" r="2.273" fill="var(--color-blue)"/>
		<circle cx="21.276" cy="9.968" r=".758" fill="var(--color-champagne)"/>
	</symbol>

	<view id="logo-view"  viewBox="0 0 100 16.447"/>
	<view id="w-view"  viewBox="100 0 16.43 11.79"/>
	<view id="map-view" viewBox="116.43 0 100 93.143"/>
	<use xlink:href="#logo" x="0" y="0" width="100" height="16.447"/>
	<use xlink:href="#w" x="100" y="0" width="16.43" height="11.79"/>
	<use xlink:href="#map" x="116.43" y="0" width="100" height="93.143"/>
</svg>
