<svg xmlns="http://www.w3.org/2000/svg" xmlns:xlink="http://www.w3.org/1999/xlink">
	<symbol id="logo" viewBox="0 0 100 16.447">
		<path d="M10.01 1.35c.02-.073.037-.13.037-.186 0-.113-.054-.17-.167-.206-.245-.076-.564-.113-.936-.113-.319 0-.598.057-.86.133-.113.036-.152.093-.152.186 0 .073.02.15.056.243l.993 2.732zm4.303.15c.02-.074.036-.13.036-.187 0-.13-.073-.225-.223-.281a8.274 8.274 0 0 0-1.347-.3l-.13-.56c.84.039 1.384.095 1.945.095.505 0 1.066-.02 1.797-.095l.036.544a1.396 1.396 0 0 0-.86.634c-.411.73-3.648 8.98-4.004 10.216l-.936.394c-.504-1.384-1.404-3.518-2.134-5.278-.747 1.796-1.495 3.742-1.85 4.884l-.973.355C4.621 9.228 1.647 1.968 1.367 1.52 1.086 1.108.597.882.15.772L0 .21c.9.093 1.76.093 2.132.093.375 0 1.536-.037 2.266-.132l.13.544c-.468.073-.916.166-1.235.279-.169.056-.225.15-.225.262 0 .093.037.186.093.319l3.257 8.1 1.59-4.096C7.24 3.634 6.68 2.117 6.324 1.52c-.281-.433-.637-.6-1.122-.769L5.07.192c.73.075 2.154.112 2.975.112 1.29 0 1.872-.02 3.648-.113l.113.525a1.32 1.32 0 0 0-.843.634c-.15.282-.84 1.985-1.534 3.761l1.909 4.622zm0 0"/>
		<path d="M24.903 4.996c0-2.271-1.583-4.072-3.416-4.072-1.88 0-3.119 1.865-3.119 3.9 0 2.24 1.632 4.326 3.462 4.326 1.975 0 3.073-2.086 3.073-4.154m1.488-.563c0 1.222-.314 2.382-.956 3.259-.845 1.176-2.57 2.335-3.994 2.335a4.54 4.54 0 0 1-4.528-4.575c0-1.176.267-2.085.862-2.913C18.62 1.362 20.39 0 21.815 0c2.804 0 4.576 2.004 4.576 4.433"/>
		<path d="M35.852 4.996c0-2.271-1.581-4.072-3.414-4.072-1.88 0-3.12 1.865-3.12 3.9 0 2.24 1.63 4.326 3.463 4.326 1.975 0 3.07-2.086 3.07-4.154m1.49-.563c0 1.222-.313 2.382-.955 3.259-.848 1.176-2.57 2.335-3.997 2.335a4.539 4.539 0 0 1-4.526-4.575c0-1.176.265-2.085.863-2.913C29.57 1.362 31.34 0 32.766 0c2.804 0 4.575 2.004 4.575 4.433"/>
		<path d="M40.755 8.084c0 .343.032.688.078.862.346.155 1.051.25 1.676.25 2.193 0 3.541-1.644 3.541-4.371 0-2.632-1.784-3.98-3.87-3.98-.516 0-1.048.064-1.33.172-.078.127-.095.456-.095.706zm6.863-3.352c0 3.477-2.428 5.138-5.013 5.138-.8 0-1.365-.032-1.943-.064a14.267 14.267 0 0 0-1.145-.046c-.406 0-.845.015-1.426.078l.142-.453c.36-.032.8-.174 1.002-.314.064-.174.125-.455.125-.955V1.519c0-.218-.046-.531-.107-.656-.157-.11-.691-.221-1.02-.253l-.157-.47c.564.078 1.035.11 1.505.11.407 0 .83-.015 1.299-.047.47-.031.972-.046 1.426-.046 2.899 0 5.312 1.894 5.312 4.575"/>
		<path d="M56.359 1.74c0-.3-.047-.613-.093-.738-.236-.171-.723-.25-1.083-.282l-.125-.5c.612.03 1.269.062 1.957.062.645 0 1.145-.032 1.694-.061l.11.468c-.33.031-.752.11-.988.235-.063.203-.078.706-.078 1.002v6.268c0 .297.015.627.061.799.267.171.863.296 1.365.36l-.157.439a36.914 36.914 0 0 0-3.698 0l.126-.424c.313-.061.705-.204.816-.346.046-.171.093-.546.093-1.048V5.278h-4.717v3.056c0 .235.017.531.063.688.204.128.785.285 1.316.363l-.14.407a25.15 25.15 0 0 0-1.614-.047c-.689 0-1.488.03-2.022.061l.079-.421c.345-.064.723-.189.83-.33.05-.158.079-.422.079-.768V1.661c0-.313-.03-.612-.093-.737-.204-.11-.72-.218-1.034-.235L48.98.172c.674.049 1.534.093 2.24.093.485 0 1.065-.015 1.487-.044l.063.453c-.36.032-.784.11-1.034.25-.063.157-.095.674-.095 1.112v2.411h4.717zm0 0"/>
		<path d="M63.313 5.42h2.884l-1.473-3.98zm3.134.706H63.03l-.985 2.507a.527.527 0 0 0-.064.264c0 .096.157.174.407.236.314.095.91.171 1.316.203l-.218.502a20.583 20.583 0 0 0-1.74-.093c-.299 0-.924.015-1.676.093l.157-.47c.36-.064.674-.204.83-.532.329-.627 3.117-7.584 3.385-8.633l1.159-.171c.578 1.865 3.241 8.287 3.491 8.662.22.345.691.61 1.255.689l-.189.44a24.297 24.297 0 0 0-1.972-.095c-.314 0-1.363.047-1.958.11l.14-.47a4.58 4.58 0 0 0 .94-.157c.157-.061.25-.14.25-.25 0-.11-.046-.25-.11-.392zm0 0"/>
		<path d="M76.96 1.33a.393.393 0 0 0 .046-.171c0-.11-.047-.171-.172-.22-.22-.108-.784-.25-1.098-.312L75.58.19c.705.078 1.443.093 1.835.093.311 0 .657 0 1.36-.093l.11.421c-.265.064-.688.314-.86.613-.346.593-3.384 7.424-3.666 8.458l-.784.393c-.799-2.208-3.212-8.38-3.462-8.743-.236-.36-.61-.547-1.02-.657l-.14-.456c.893.078 1.488.078 1.802.078.313 0 1.284-.029 1.99-.107l.155.42c-.36.047-.72.11-1.034.174-.157.047-.22.093-.22.218 0 .079.032.204.095.392l2.475 6.565zm0 0"/>
		<path d="M87.111 7.143c-.127.737-.47 2.068-.691 2.71a32.173 32.173 0 0 0-2.977-.108c-.86 0-2.272.015-3.76.079l.126-.441c.345-.03.816-.172 1.034-.312.078-.203.125-.595.125-.926V1.583c0-.235-.032-.517-.093-.627-.204-.142-.628-.218-.97-.253L79.747.19c.642.046 1.8.078 2.631.078 1.206 0 2.365-.032 3.698-.189.03 1.066.047 1.958.125 2.804l-.33.017a23.945 23.945 0 0 0-.672-1.693c-.079-.157-.11-.19-.236-.204-.205-.032-.769-.046-1.176-.046-.5 0-1.19.031-1.345.093-.064.174-.064.485-.064.848V4.4c.25.017.579.017.91.017.592 0 1.173-.017 1.487-.047l.392-.909.282.047a19.5 19.5 0 0 0-.047 1.223c0 .578.015 1.08.079 1.533l-.3.032-.485-1.048c-.374-.017-.798-.017-1.269-.017-.36 0-.752 0-1.063.017v2.913c0 .297.014.596.078.784.468.061 1.095.093 1.69.093.408 0 .878-.014 1.143-.032.299-.046.44-.093.549-.235.267-.36.644-1.095.88-1.63zm0 0"/>
		<path d="M97.437 1.122c-.22-.15-.853-.299-1.262-.335l-.184-.593c.76.073 1.372.093 2.041.093.686 0 1.373-.057 1.855-.093l.113.575c-.372.017-1.059.184-1.282.297-.036.15-.073.576-.073.983l-.037 7.331c0 .686 0 1.299.054 2.154l-.872.426c-1.04-1.597-5.288-7.388-7.146-9.836v7.572c0 .353.02.743.094.963.205.15 1.281.39 1.69.429l-.186.483c-.576-.037-1.262-.037-1.874-.037-.65 0-1.412.017-2.042.054l.11-.5c.427-.056.856-.243.986-.373.073-.203.11-.536.11-1.002V2.7c0-.669-.037-1.355-.13-1.634-.24-.13-.723-.26-1.112-.297l-.13-.612c.666.037 1.169.093 1.744.093.427 0 .853-.04 1.373-.093l6.31 8.704c0-2.507-.02-4.695-.02-6.683 0-.443-.054-.909-.13-1.056"/>
		<path d="M27.447 15.79a2.768 2.768 0 0 1-.118.162 1.166 1.166 0 0 1-.238.218c-.1.076-.225.14-.375.196-.147.054-.323.08-.526.08-.248 0-.476-.043-.68-.136a1.555 1.555 0 0 1-.528-.38 1.758 1.758 0 0 1-.339-.573 2.132 2.132 0 0 1-.117-.718c0-.253.04-.488.117-.706.081-.22.194-.41.339-.574.147-.164.323-.291.529-.384a1.58 1.58 0 0 1 .679-.14c.203 0 .38.027.526.08.15.057.275.121.375.195.103.075.182.149.238.22.056.071.096.125.118.162l-.187.127-.102-.13a.843.843 0 0 0-.196-.183 1.236 1.236 0 0 0-.762-.238c-.221 0-.417.04-.591.12-.174.08-.321.194-.444.333a1.49 1.49 0 0 0-.276.5 1.94 1.94 0 0 0-.096.618c0 .22.034.426.1.617.064.191.157.358.277.5.123.145.27.257.446.338.177.081.375.12.598.12a1.2 1.2 0 0 0 .429-.07c.12-.05.225-.106.309-.168a.996.996 0 0 0 .2-.183c.052-.06.086-.103.108-.13zm0 0"/>
		<path d="M28.645 12.916h.247v1.946c0 .196.017.377.047.541.032.167.088.309.17.429.08.12.188.216.327.282.138.068.314.1.527.1.213 0 .39-.032.527-.1a.819.819 0 0 0 .328-.282c.081-.12.138-.262.17-.429a3.11 3.11 0 0 0 .046-.541v-1.946h.248v2.073c0 .203-.023.394-.064.57a1.228 1.228 0 0 1-.218.464 1.044 1.044 0 0 1-.407.311 1.54 1.54 0 0 1-.63.113c-.252 0-.463-.037-.63-.113a1.027 1.027 0 0 1-.406-.311 1.155 1.155 0 0 1-.216-.463 2.355 2.355 0 0 1-.066-.571zm0 0"/>
		<path d="M32.642 15.734c.117.142.257.257.421.345.164.091.36.135.595.135.135 0 .258-.015.37-.046a.812.812 0 0 0 .29-.138.59.59 0 0 0 .188-.227.715.715 0 0 0 .069-.317.667.667 0 0 0-.076-.325.674.674 0 0 0-.199-.226 1.06 1.06 0 0 0-.281-.147 5.15 5.15 0 0 0-.319-.103 5.95 5.95 0 0 1-.392-.118c-.132-.041-.25-.1-.353-.169a.848.848 0 0 1-.25-.27.825.825 0 0 1-.095-.42c0-.118.024-.23.07-.336a.834.834 0 0 1 .211-.28c.091-.078.204-.142.336-.188.132-.047.284-.069.453-.069a1.417 1.417 0 0 1 .68.162 1.078 1.078 0 0 1 .354.313l-.176.15a1.128 1.128 0 0 0-.12-.132.826.826 0 0 0-.174-.13 1.158 1.158 0 0 0-.573-.138.986.986 0 0 0-.365.06.69.69 0 0 0-.253.149.628.628 0 0 0-.191.448c0 .125.03.228.086.309a.69.69 0 0 0 .225.2c.093.055.196.099.314.133.115.034.23.066.348.098.12.032.24.071.362.115.12.047.228.11.321.187a.892.892 0 0 1 .233.294c.062.115.09.262.09.433a.84.84 0 0 1-.092.4.91.91 0 0 1-.25.304c-.106.08-.23.144-.375.19a1.584 1.584 0 0 1-.466.067 1.689 1.689 0 0 1-.742-.167 1.428 1.428 0 0 1-.267-.171.947.947 0 0 1-.189-.199zm0 0"/>
		<path d="M36.962 13.139h-1.338v-.223h2.925v.223h-1.338v3.225h-.25zm0 0"/>
		<path d="M40.833 16.214c.218 0 .417-.039.596-.12a1.394 1.394 0 0 0 .749-.838c.069-.191.103-.397.103-.613 0-.218-.034-.421-.103-.615a1.521 1.521 0 0 0-.291-.502 1.392 1.392 0 0 0-1.054-.458 1.389 1.389 0 0 0-1.051.458 1.521 1.521 0 0 0-.292.502 1.82 1.82 0 0 0-.103.615c0 .216.035.422.103.613.069.191.167.358.292.502a1.37 1.37 0 0 0 1.051.456m0 .233a1.656 1.656 0 0 1-1.225-.522 1.88 1.88 0 0 1-.485-1.282 1.884 1.884 0 0 1 .485-1.284c.152-.164.333-.291.541-.387.209-.09.437-.137.684-.137.25 0 .478.047.686.137.209.096.387.223.54.387a1.8 1.8 0 0 1 .357.576c.086.22.13.456.13.708 0 .255-.044.493-.13.711-.086.218-.206.41-.358.571a1.66 1.66 0 0 1-1.225.522"/>
		<path d="M43.908 12.916h.27l1.198 2.048 1.225-2.048h.238l.157 3.45h-.25l-.118-3.06-1.188 1.972h-.16l-1.158-1.968-.12 3.056h-.248Zm0 0"/>
		<path d="M52.578 15.79a1.235 1.235 0 0 1-.353.38c-.103.076-.228.14-.377.196-.147.054-.324.08-.527.08-.248 0-.473-.043-.679-.136a1.545 1.545 0 0 1-.527-.38 1.676 1.676 0 0 1-.338-.573 2.097 2.097 0 0 1-.12-.718c0-.253.04-.488.12-.706a1.7 1.7 0 0 1 .338-.574 1.588 1.588 0 0 1 1.206-.524c.203 0 .38.027.527.08.149.057.274.121.377.195a1.323 1.323 0 0 1 .353.382l-.186.127a4.569 4.569 0 0 0-.1-.13.956.956 0 0 0-.197-.183 1.231 1.231 0 0 0-.762-.238 1.297 1.297 0 0 0-1.034.453 1.461 1.461 0 0 0-.277.5 1.94 1.94 0 0 0-.096.618c0 .22.032.426.098.617.067.191.16.358.28.5.12.145.267.257.443.338.177.081.378.12.6.12a1.196 1.196 0 0 0 .738-.238 1.15 1.15 0 0 0 .201-.183c.05-.06.086-.103.106-.13zm0 0"/>
		<path d="m55.704 15.02-.717-1.788-.718 1.789zm-.83-2.104h.247l1.412 3.45h-.285l-.45-1.112h-1.623l-.443 1.112h-.27zm0 0"/>
		<path d="M58.522 16.13c.13 0 .263-.004.392-.016.133-.012.25-.042.356-.088a.605.605 0 0 0 .255-.209.65.65 0 0 0 .098-.382.687.687 0 0 0-.096-.38.635.635 0 0 0-.243-.228 1.084 1.084 0 0 0-.328-.112 2.14 2.14 0 0 0-.35-.03h-.76v1.446zm.079-1.678c.09 0 .189-.012.287-.036a.81.81 0 0 0 .264-.118.7.7 0 0 0 .196-.21.556.556 0 0 0 .079-.31.61.61 0 0 0-.076-.328.536.536 0 0 0-.191-.193.744.744 0 0 0-.268-.086 1.965 1.965 0 0 0-.291-.022h-.755v1.303zm-1.005-1.536h1.144a1.2 1.2 0 0 1 .434.071.82.82 0 0 1 .294.186c.076.076.13.167.164.267.035.103.054.211.054.324a.836.836 0 0 1-.174.51.749.749 0 0 1-.193.178.683.683 0 0 1-.255.098c.09.013.184.037.282.071a.86.86 0 0 1 .262.155.79.79 0 0 1 .196.26.92.92 0 0 1 .078.399.897.897 0 0 1-.103.456.765.765 0 0 1-.281.284 1.28 1.28 0 0 1-.414.15 3.063 3.063 0 0 1-.5.039h-.988zm0 0"/>
		<path d="M61.117 12.916h.248v3.45h-.248zm0 0"/>
		<path d="M62.771 12.916h.258l2.212 3.075v-3.075h.243v3.45h-.257l-2.213-3.036v3.036h-.243zm0 0"/>
		<path d="M66.89 12.916h2.069v.233H67.14v1.303h1.422v.233H67.14v1.446h1.953v.235H66.89zm0 0"/>
		<path d="M71.31 13.139h-1.34v-.223h2.926v.223h-1.338v3.225h-.247zm0 0"/>
		<path d="M73.864 15.734c.118.142.258.257.422.345.164.091.362.135.595.135.135 0 .26-.015.37-.046a.812.812 0 0 0 .29-.138.596.596 0 0 0 .19-.227.715.715 0 0 0 .067-.317.641.641 0 0 0-.275-.55 1.024 1.024 0 0 0-.282-.148 4.912 4.912 0 0 0-.318-.103 5.948 5.948 0 0 1-.392-.118c-.13-.041-.248-.1-.35-.169a.829.829 0 0 1-.253-.27.825.825 0 0 1-.096-.42.826.826 0 0 1 .282-.615c.09-.08.204-.143.338-.19.13-.046.282-.068.451-.068a1.417 1.417 0 0 1 .679.162.992.992 0 0 1 .355.313l-.176.15a.914.914 0 0 0-.294-.262 1.135 1.135 0 0 0-.574-.138 1 1 0 0 0-.365.06.7.7 0 0 0-.25.149.571.571 0 0 0-.144.208.625.625 0 0 0-.047.24c0 .125.027.228.084.309.058.08.132.147.225.2.093.055.199.099.314.133.115.034.23.066.348.098.122.032.242.071.362.115.12.047.228.11.324.187a.96.96 0 0 1 .233.294c.058.115.09.262.09.433a.857.857 0 0 1-.093.4.947.947 0 0 1-.252.304 1.2 1.2 0 0 1-.375.19 1.573 1.573 0 0 1-.466.067 1.63 1.63 0 0 1-.402-.047 1.614 1.614 0 0 1-.338-.12 1.45 1.45 0 0 1-.27-.171 1.093 1.093 0 0 1-.188-.199zm0 0"/>
		<path d="M22.519 14.84H8.094v-.15h14.425Zm0 0"/>
		<path d="M92.529 14.84H78.103v-.15H92.53zm0 0"/>
	</symbol>
	<symbol id="w" viewBox="0 0 16.43 11.79">
		<path d="M10.01 1.35c.02-.073.037-.13.037-.186 0-.113-.054-.17-.167-.206-.245-.076-.564-.113-.936-.113-.319 0-.598.057-.86.133-.113.036-.152.093-.152.186 0 .073.02.15.056.243l.993 2.732zm4.303.15c.02-.074.036-.13.036-.187 0-.13-.073-.225-.223-.281a8.274 8.274 0 0 0-1.347-.3l-.13-.56c.84.039 1.384.095 1.945.095.505 0 1.066-.02 1.797-.095l.036.544a1.396 1.396 0 0 0-.86.634c-.411.73-3.648 8.98-4.004 10.216l-.936.394c-.504-1.384-1.404-3.518-2.134-5.278-.747 1.796-1.495 3.742-1.85 4.884l-.973.355C4.621 9.228 1.647 1.968 1.367 1.52 1.086 1.108.597.882.15.772L0 .21c.9.093 1.76.093 2.132.093.375 0 1.536-.037 2.266-.132l.13.544c-.468.073-.916.166-1.235.279-.169.056-.225.15-.225.262 0 .093.037.186.093.319l3.257 8.1 1.59-4.096C7.24 3.634 6.68 2.117 6.324 1.52c-.281-.433-.637-.6-1.122-.769L5.07.192c.73.075 2.154.112 2.975.112 1.29 0 1.872-.02 3.648-.113l.113.525a1.32 1.32 0 0 0-.843.634c-.15.282-.84 1.985-1.534 3.761l1.909 4.622zm0 0"/>
	</symbol>

	<view id="logo-view"  viewBox="0 0 100 16.447"/>
	<view id="w-view"  viewBox="0 0 16.43 11.79"/>
	<use xlink:href="#logo" x="0" y="0" width="100" height="16.447"/>
	<use xlink:href="#w" x="100" y="0" width="16.43" height="11.79"/>
</svg>
